<?xml version="1.0" standalone="no"?>
<!DOCTYPE svg PUBLIC "-//W3C//DTD SVG 20010904//EN"
 "http://www.w3.org/TR/2001/REC-SVG-20010904/DTD/svg10.dtd">
<svg version="1.0" xmlns="http://www.w3.org/2000/svg"
 width="128.000000pt" height="128.000000pt" viewBox="0 0 128.000000 128.000000"
 preserveAspectRatio="xMidYMid meet">
<metadata>
Created by potrace 1.11, written by Peter Selinger 2001-2013
</metadata>
<g transform="translate(0.000000,128.000000) scale(0.100000,-0.100000)"
fill="#000000" stroke="none">
<path d="M575 1249 c-94 -12 -215 -58 -273 -102 -53 -41 -146 -141 -180 -195
-76 -118 -101 -229 -91 -407 2 -53 63 -219 89 -245 3 -3 18 -24 33 -46 60 -89
175 -175 284 -212 249 -86 489 -25 669 171 107 116 153 223 161 378 8 151 -27
286 -103 391 -39 56 -131 148 -146 148 -5 0 -37 18 -72 40 -109 69 -239 97
-371 79z"/>
</g>
</svg>
